<svg x="44.577" y="-.332" width="312.908" height="356.169" viewBox="33.433 -0.249 234.681 267.127" xmlns="http://www.w3.org/2000/svg" xmlns:xlink="http://www.w3.org/1999/xlink"><defs><g id="b"><defs><path id="a" d="M63.15 245.424c-.092-1.819 2.445-3.285 4.062-2.133 1.566 1.112.636 4.023 2.142 5.266-.818.182-1.576.95-2.152 1.192 4.386-.808 2.87 2.679.05 3.841-1.475.606-5.214 3.052-6.579 3.062-3.456.02-1.667-3.345-.273-4.932 1.991-2.243 3.396-2.678 3.366-6.306"/></defs><use xlink:href="#a" fill="none" stroke="#000" stroke-linecap="round" stroke-linejoin="round" stroke-miterlimit="10"/></g></defs><use xlink:href="#b"/><defs><g id="d"><defs><path id="c" d="M61.783 234.328c.768 6.559 4.487 1.495 7.59 3.607 3.76 2.557 7.387 5.225 12.289 5.71 4.436.445 10.025-2.395 12.652-5.932a187.465 187.465 0 019.904-12.218c.404-.455 2.648-2.254 2.809-2.557.576-1.051-.313-2.85.041-3.982.717-2.294 2.496-4.952 3.658-7.418 1.536-3.254 1.981-4.598 2.254-8.388.344-4.608 2.537-5.973 5.609-9.176 2.183-2.284 3.537-2.951 6.488-4.214 2.577-1.112 4.224-2.961 6.609-4.134 2.416-1.172 4.265-.525 6.852-.93 5.963-.939-.081-3.001-3.396-3.163-.727-7.317 3.537-8.984 8.368-13.107 3.83-3.275 4.518-7.135 5.943-11.754 1.475-4.759 5.517-8.63 7.165-13.087.849-2.314-.9-3.891-.627-6.175.303-2.536 2.628-3.173 2.173-6.255-1.637-.02-3.921.293-4.912-1.354-.939-1.567.617-2.719.213-4.488-4.447-1.455-2.79 3.699-4.609 5.538-2.102 2.113-8.458-.808-9.438 2.739-.819-2.476.717-4.436.646-6.781-3.557-.849-1.859-5.467-3.921-6.933-2.86-2.031-3.325 2.486-4.669 3.831-.95.949-2.991 1-3.476 1.536-.95 1.061-.586 2.637-.667 4.002-.405 6.74-2.648 12.066-9.924 12.511-.303 5.124-2.517 10.075-4.932 14.593-2.385 4.447-4.972 6.043-8.822 9.095-2.022 1.607-2.476 3.194-3.962 5.225-1.516 2.071-3.365 2.526-5.396 4.072-1.79 1.365-2.567 2.921-4.265 4.356-1.597 1.344-4.78 2.001-6.872 2.537-1.789 6.235-7.55 3.608-11.339 7.185-2.031 1.92-2.506 3.911-5.215 5.548-3.112 1.89-4.699 2.86-5.932 6.205-.839 2.304-1.152 3.699-2.87 5.922-1.99 2.577-4.356 3.962-6.407 6.246-1.445 1.607-3.598 4.507-4.124 6.609-.171.687.546 1.203.344 1.85-.182.566-.859 1.121-.94 1.404-.394 1.304-2.203 1.809-.273 3.214-.414-.303-1.536 1.779-1.586 2.122-.182 1.243.828 1.991 1.414 2.921 1.021 1.607 1.89 2.607 3.67 3.355 3.334 1.425 8.397.819 11.884.111z"/></defs><use xlink:href="#c" fill="none" stroke="#000" stroke-linecap="round" stroke-linejoin="round" stroke-miterlimit="10"/></g></defs><use xlink:href="#d"/><defs><g id="f"><defs><path id="e" d="M164.694 131.73c2.628-1.142 4.093-4.993 4.922-7.489.848-2.567 2.122-5.245 2.556-7.852.475-2.87-.707-6.842-2.971-8.651-1.404-1.132-2.344-.606-4.204-1.162-1.212-.364-2.274-1.516-3.476-2.112-3.911-1.91-12.39-4.558-8.975-11.036 1.243-2.365 4.437-1.93 6.549-3.517 1.94-1.455 4.154-4.932 4.992-7.246.92-2.537 1.072-5.114 2.022-7.64.818-2.203 1.465-3.89.717-6.296-1.445-4.629-4.366-8.449-3.638-13.593.879.203 1.961.162 2.719.526.464-3.143-3.689-1.476-5.205-.92-.071-1.425.283-3.254-.05-4.628-.486-2.001-2.507-3.184-2.79-5.255 1.112-.162 2.153.11 3.052.788.536-1.81-2.405-5.811-4.274-5.7.151.697-.162 1.526.091 2.264-1.769.586-2.81-2.77-3.871-4.234a71.926 71.926 0 01-3.355-5.013c-1.93-3.163-5.023-5.033-6.842-8.145-1.667-2.86-.273-6.418-1.718-9.207-1.455-2.8-6.781-4.881-5.781-8.459 1.344 1.466 3.436 1.436 5.276 1.031-.505.98-1.233 1.96-1.546 2.941 1.92-.131 2.132 1.162 3.062 2.233 2.294 2.638 1.556 1.83 4.608 2.476 2.941.627 6.973 2.578 9.328 4.063 3.294 2.072 2.597 4.75 4.517 8.105.718 1.253 3.83 3.113 3.386 4.75-.789 2.86-3.739.283-4.588-.92 1.132 2.526 3.153 4.487 4.881 6.508 2.344 2.739 1.01 3.335 1.314 6.852.404 4.75 6.983 10.167 11.086 12.37.273-4.65-1.395-8.914-4.285-12.39 2.577-1.082 4.346 1.445 5.943 2.819 1.93 1.657 1.97.97 2.445 3.375.263 1.365-.05 2.982 0 4.366.182 5.043 4.952 11.157 9.429 13.4 2.638 1.325 6.094 1.193 8.974 1.628 4.033.596 4.447.06 7.489-2.203.929-.698 1.849-.96 2.749-1.526 1.192-.738 2.364-2.315 3.425-2.9 3.709-2.022 4.477 2.677 8.075 2.233.324 3.719-1.304 4.952-2.536 8.054-.961 2.405-.102 5.094-1.173 7.468-1.031 2.285-3.507 2.972-4.901 5.306-1.759 2.941.131 4.022-.111 7.428-.485.131-1.294.131-1.779 0-.263-1.768-7.498-1.718-9.479-.97-2.325.87-3.74 4.639-3.598 7.084.232 3.942 2.274 4.043.172 7.883-1.253 2.294-2.689 4.487-3.649 6.933-2.021 5.134-5.588 9.237-7.549 14.32-1.061 2.769-2.476 4.558-4.841 6.306-1.566 1.152-5.063 4.598-7.226 4.295-2.728-.374-.929-1.687-2.556-3.062-1.173-.99-2.749-.707-4.225-.717-.778-2.304-3.86-1.041-3.506-3.649.232-1.647 2.688-1.91 3.749-3.173"/></defs><use xlink:href="#e" fill="none" stroke="#000" stroke-linecap="round" stroke-linejoin="round" stroke-miterlimit="10"/></g></defs><use xlink:href="#f"/><defs><g id="h"><defs><path id="g" d="M175.286 39.222c-1.021-.425-1.253-1.526-.89-2.77 1.567.01 1.9 4.518 1.84 6.105-.506-.87-.93-1.759-1.263-2.719"/></defs><use xlink:href="#g" fill="none" stroke="#000" stroke-linecap="round" stroke-linejoin="round" stroke-miterlimit="10"/></g></defs><use xlink:href="#h"/><defs><g id="j"><defs><path id="i" d="M165.566 193.425c-.422-.554-1.816-2.844-1.816-6.75 0-7.605 5.117-12.77 10.328-12.77 2.461 0 3.683.422 4.183.531 1.18-1.425 15.375-19.676 38.691-19.676 19.398 0 39.438 8.008 39.438 35.918 0 15.043-9.375 25.207-15.836 27.645-2.797 1.055-3.199 3.028-3.203 4.602 0 1.602.211 5.215.59 7.996.187 1.375 2.324 2.195 3.695 4.141 1.371 1.945 2.117 3.23 2.36 5.222.187 1.532 0 1.946-1.102.497-1.109-1.461-3.387-5.059-8.488-5.059-.414 0-1.461-.316-2.836 1.059-1.371 1.371-3.317 3.656-4.004 3.89-.941.317-2.977 2.172-3.773 3.43-.801 1.258-1.258 1.973-1.258.344 0-1.606.066-2.832 1.945-5.262 1.891-2.445 3.082-3.867 3.43-4.231-2.969.907-5.246.801-8.922 2.977-1.281.758-1.567.523-.496-.934 1.195-1.632 2.383-2.664 5.301-3.871 2.75-1.132 6.484-1.593 7.351-1.726.805-.125 1.672-1.156 1.875-3.117.153-1.481.52-6.141-.191-7.856-.446-1.074-3.453-1.59-6.176-7.437-1.176.726-3.832 1.812-6.113 2.406-1.059.273-1.313 3.836-1.438 6.402-.125 2.629.344 6.406.457 7.434.114 1.031.336 1.609-.867 2.187-3.242 1.563-3.074 2.555-5.023 4.527-1.637 1.657-2.215 2.942-2.481 3.586-.43 1.036-.664.438-.652-.504.015-1.582.258-3.621 1.144-5.238-2.089.906-4.57 1.973-6.285 2.434-1.715.457-3.672.16-5.801.926-1.777.636-1.844.804-2.761 1.144-.914.344-.489-.426.621-1.488.992-.957 4.578-2.762 6.523-3.332 1.945-.571 4.305-1.914 4.734-2.168-.632-.735-2.558-1.141-4.277-1.141-1.012 0-2.121.106-3.152.219-.875.098-1-.211.441-1.164 1.563-1.031 4.817-1.008 6.418-1.008 1.602 0 3.231.098 4.399.098.89 0 1.777-.829 2.109-2.996.27-1.778.621-6.606.633-9.012-1.965-1.297-7.75-3.645-7.75-14.234-2.602-5.094-5.934-6.02-9.398-6.02-5.114 0-7.254 4.293-18.527.594-2.157-.707-4.29-.328-7.18 2.129-4.606 3.922-10.363 13.336-12.645 21.609-1.36 4.922-2.074 9.82-2.703 9.82-.918 0-.735-4.136-.438-6.265 1.59-11.398 5.512-23.137 8.926-30.508z"/></defs><use xlink:href="#i" fill-rule="evenodd"/></g></defs><use xlink:href="#j"/><defs><g id="l"><defs><path id="k" d="M150.037 169.222a172.433 172.433 0 0110.136 38.301 172.986 172.986 0 0115.688 11.398 172.95 172.95 0 0114.16 12.93l.34 3.379a480.278 480.278 0 00-51.816 20.39 712.37 712.37 0 00-15.77-15.434 700.526 700.526 0 00-14.531-13.402 412.888 412.888 0 00-3.152-17.348c-1.461-7.16-3.055-14-4.731-20.5 8.5-3.094 17.18-6.39 26.02-9.91 8.114-3.234 16-6.508 23.656-9.805zm23.68 50.801a179.355 179.355 0 00-14.785-10.645 339.78 339.78 0 00-43.168 16.899 212.498 212.498 0 0124.328 23.398 5642.624 5642.624 0 0127.625-10.812 6427.897 6427.897 0 0119.008-7.352 179.27 179.27 0 00-13.008-11.488zm-48.828 19.77a475.717 475.717 0 0113.855 13.77 685.999 685.999 0 0127.035-11.066 673.724 673.724 0 0122.473-8.195c-.086-.508-.168-1.016-.254-1.52a1945.369 1945.369 0 00-22.473 8.449 2028.545 2028.545 0 00-26.359 10.309 327.143 327.143 0 00-11.656-11.996 325.195 325.195 0 00-13.262-12.25c-.649.309-1.297.622-1.942.93a481.513 481.513 0 0112.582 11.57zm-17.488-30.16a435.922 435.922 0 013.378 17.148 3092.308 3092.308 0 0147.223-19.597 164.4 164.4 0 00-8.785-35.313 1254.576 1254.576 0 01-22.809 9.207 1284.628 1284.628 0 01-23.738 9.039 435.97 435.97 0 014.731 19.516z"/></defs><use xlink:href="#k" fill-rule="evenodd"/></g></defs><use xlink:href="#l"/><defs><g id="n"><defs><path id="m" d="M142.459 246.89a146.268 146.268 0 00-22.722-19.597 197.64 197.64 0 0120.273-9.207 197.48 197.48 0 0118.926-6.254 144.05 144.05 0 0122.977 18.414 364.734 364.734 0 00-39.453 16.644zm-2.18-4.969a42.028 42.028 0 012.582 2.75 608.588 608.588 0 0118.945-8.257 22.918 22.918 0 00-2.535-2.618 22.813 22.813 0 00-3.078-2.289c-.285.125-8.543 3.786-8.832 3.914-.34.149-9.242 4.098-9.582 4.25a41.862 41.862 0 012.5 2.25zm5.969-13.551a413.217 413.217 0 015.425-1.843 70.852 70.852 0 00-2.988-2.098 188.64 188.64 0 00-5.406 1.957c1.019.664 2.012 1.324 2.969 1.984zm-4.157-1.527c-1.281.496-2.535.996-3.765 1.504.93.633 1.812 1.266 2.644 1.898 1.328-.48 2.672-.957 4.028-1.433a74.91 74.91 0 00-2.907-1.969zm10.719-.691a433.154 433.154 0 015.071-1.637 76.341 76.341 0 00-2.86-2.148 199.708 199.708 0 00-5.214 1.679c1.039.703 2.043 1.407 3.003 2.106zm-5.203 3.176c1.106.789 2.164 1.574 3.176 2.347a292.215 292.215 0 014.867-1.988 78.247 78.247 0 00-2.812-2.277c-1.688.621-3.426 1.257-5.231 1.918zm-1.254.457l-4.066 1.476a64.06 64.06 0 013.172 2.711c1.328-.59 2.68-1.176 4.047-1.758a90.847 90.847 0 00-3.152-2.429zm-5.195 1.886l-3.793 1.371a48.519 48.519 0 013.418 3.051 323.942 323.942 0 013.77-1.719 81.364 81.364 0 00-3.395-2.703zm-1.359-1a92.911 92.911 0 00-2.656-1.836c-1.18.496-2.336.993-3.465 1.493a51.16 51.16 0 012.414 1.714c1.223-.457 2.457-.914 3.707-1.371zm-3.86-2.617a78.527 78.527 0 00-1.847-1.144c-1.203.488-2.403.98-3.59 1.468a48.38 48.38 0 011.969 1.172c1.132-.5 2.293-1 3.468-1.496zm1.192-.5a256.487 256.487 0 013.722-1.504 70.787 70.787 0 00-1.832-1.113c-1.246.492-2.484.984-3.71 1.48a56.55 56.55 0 011.82 1.137zm4.894-1.965a228.853 228.853 0 015.371-2.004 78.212 78.212 0 00-1.89-1.168c-1.785.68-3.555 1.364-5.305 2.047.606.367 1.215.742 1.824 1.125zm6.477-2.398a226.72 226.72 0 015.18-1.754 70.43 70.43 0 00-2-1.316 462.142 462.142 0 00-5.063 1.882c.625.383 1.25.778 1.883 1.188zm6.644-2.223a211.626 211.626 0 014.852-1.484 67.076 67.076 0 00-2.215-1.555 708.095 708.095 0 00-4.652 1.664c.664.438 1.336.895 2.015 1.375zm1.332.961a85.834 85.834 0 012.797 2.152c1.594-.496 3.176-.98 4.742-1.449a74.917 74.917 0 00-2.617-2.101c-1.609.433-3.25.898-4.922 1.398zm3.735 2.918a87.725 87.725 0 012.476 2.137 271.786 271.786 0 014.434-1.594 74.086 74.086 0 00-2.141-1.934c-1.734.465-3.32.934-4.769 1.391zm-1.371.442a151.19 151.19 0 00-4.887 1.71c.996.75 1.945 1.493 2.852 2.227a310.758 310.758 0 014.578-1.758 78.15 78.15 0 00-2.543-2.179zm-22.125 12.73c.941-.454 1.894-.907 2.859-1.36a32.889 32.889 0 00-3.379-3.195c-1.098.398-2.219.801-3.367 1.219a76.362 76.362 0 013.887 3.336zm-6.59-5.407c.519.379 1.019.758 1.512 1.137 1.089-.422 2.183-.844 3.293-1.266a29.196 29.196 0 00-2.454-1.617c-.988.446-1.96.895-2.91 1.34.184.137.367.27.559.406zm-1.719-1.218c.902-.422 1.816-.84 2.75-1.258a44.934 44.934 0 00-2.262-1.09c-.824.344-1.644.687-2.457 1.035.645.418 1.305.856 1.969 1.313zm-6.055-3.766c.981.547 2 1.148 3.047 1.797.723-.317 1.446-.633 2.176-.949-1.477-.629-2.781-1.137-3.652-1.578-.528.242-1.051.484-1.571.73zm3.403-1.578c1.113.473 2.3 1.027 3.543 1.68 1.183-.512 2.382-1.02 3.589-1.524a78.415 78.415 0 00-3.367-1.836 228.203 228.203 0 00-3.765 1.68zm4.886-2.172a60.443 60.443 0 013.442 1.82 635.893 635.893 0 013.652-1.511 85.301 85.301 0 00-3.441-1.86 324.31 324.31 0 00-3.653 1.551zm4.911-2.066c1.097.593 2.222 1.222 3.367 1.894a608.417 608.417 0 015.215-2.09 72.83 72.83 0 00-3.446-1.844 257.047 257.047 0 00-5.136 2.04zm6.382-2.52c1.078.586 2.188 1.211 3.321 1.883a524.136 524.136 0 015.011-1.934 71.806 71.806 0 00-3.214-1.832 256.855 256.855 0 00-5.118 1.883zm6.735-2.457a77.11 77.11 0 013.066 1.852 519.012 519.012 0 014.613-1.711 74.047 74.047 0 00-2.882-1.766 313.58 313.58 0 00-4.797 1.625zm9.844-3.23c-1.29.394-2.594.808-3.915 1.234a73.966 73.966 0 012.852 1.734c1.254-.453 2.496-.902 3.734-1.339-.91-.579-1.8-1.122-2.671-1.629zm4.195 2.609c-1.262.434-2.527.867-3.801 1.312.754.508 1.52 1.043 2.293 1.61 1.391-.399 2.766-.781 4.117-1.141a97.843 97.843 0 00-2.609-1.781zm4.187 2.926c-1.394.332-2.816.687-4.269 1.066a69.256 69.256 0 012.574 2.07c1.41-.418 2.813-.82 4.199-1.218a84.07 84.07 0 00-2.504-1.918zm3.77 2.933c-.942.203-2.016.45-3.199.743-.43.105-.852.21-1.266.32a79.65 79.65 0 012.055 1.859 281.36 281.36 0 014.195-1.418c-.574-.5-1.172-1-1.785-1.504zm8.207 7.496a15.51 15.51 0 00-2.535-2.617 15.786 15.786 0 00-2.871-1.859c-2.469.844-4.977 1.73-7.52 2.66a369.842 369.842 0 00-8.332 3.168 31.923 31.923 0 013.012 2.367c.988.875 1.84 1.739 2.57 2.551 2.879-1.16 5.766-2.32 8.664-3.48 2.34-.934 4.68-1.864 7.012-2.79z"/></defs><use xlink:href="#m" fill-rule="evenodd"/></g></defs><use xlink:href="#n"/><defs><g id="p"><defs><path id="o" d="M148.291 174.741a133.933 133.933 0 015.07 16.219 133.776 133.776 0 012.789 15.207 3374.492 3374.492 0 00-19.938 7.942 3338.96 3338.96 0 00-23.906 9.714 235.043 235.043 0 00-7.266-32.527 1137.2 1137.2 0 0022.051-8.195 1145.795 1145.795 0 0021.199-8.359z"/></defs><use xlink:href="#o" fill-rule="evenodd"/></g></defs><use xlink:href="#p"/><defs><g id="r"><defs><path id="q" d="M45.616 41.073V18.29h3.136l4.928 13.728h.064V18.29h3.264v22.784h-3.072l-4.992-13.696h-.064v13.696h-3.264zm13.28 0v-2.88l6.144-16.832h-5.824V18.29h9.376v2.592l-6.272 17.12h6.272v3.072h-9.696zm-13.152 38.4V56.69h4.832c1.877 0 3.3.512 4.272 1.536.97 1.024 1.456 2.475 1.456 4.352v10.656c0 2.133-.518 3.707-1.552 4.72-1.035 1.013-2.523 1.52-4.464 1.52h-4.544zm3.264-19.712v16.64h1.504c.917 0 1.568-.23 1.952-.688.384-.459.576-1.179.576-2.16V62.577c0-.896-.182-1.59-.544-2.08-.363-.49-1.024-.736-1.984-.736h-1.504zM65.36 79.473V77.81h-.064c-.427.597-.86 1.056-1.296 1.376-.438.32-1.051.48-1.84.48-.384 0-.774-.059-1.168-.176a3.026 3.026 0 01-1.136-.656c-.363-.299-.656-.73-.88-1.296-.224-.565-.336-1.296-.336-2.192 0-.917.074-1.723.224-2.416.149-.693.426-1.275.832-1.744.384-.448.906-.784 1.568-1.008.66-.224 1.504-.336 2.528-.336h.352c.128 0 .245.01.352.032.106.021.234.032.384.032.149 0 .309.01.48.032v-1.696c0-.555-.118-1.013-.352-1.376-.235-.363-.662-.544-1.28-.544-.427 0-.816.139-1.168.416-.352.278-.582.683-.688 1.216h-3.168c.085-1.45.576-2.624 1.472-3.52a4.632 4.632 0 011.536-1.008c.597-.245 1.269-.368 2.016-.368.682 0 1.322.107 1.92.32.597.213 1.12.533 1.568.96.426.427.768.96 1.024 1.6.256.64.384 1.387.384 2.24v11.296H65.36zm0-6.976a5.356 5.356 0 00-.896-.096c-.704 0-1.307.166-1.808.496-.502.33-.752.933-.752 1.808 0 .619.149 1.12.448 1.504.298.384.714.576 1.248.576.554 0 .986-.181 1.296-.544.309-.363.464-.875.464-1.536v-2.208zm5.664-9.248v-4.928h3.264v4.928h2.016v2.56h-2.016v8.992c0 .384.037.683.112.896a.89.89 0 00.368.48c.17.107.378.17.624.192.245.021.549.032.912.032v3.072H74.96c-.747 0-1.371-.117-1.872-.352-.502-.235-.902-.533-1.2-.896a3.52 3.52 0 01-.656-1.232 4.58 4.58 0 01-.208-1.328V65.81h-1.632v-2.56h1.632zm12.704 16.224V77.81h-.064c-.427.597-.86 1.056-1.296 1.376-.438.32-1.051.48-1.84.48-.384 0-.774-.059-1.168-.176a3.026 3.026 0 01-1.136-.656c-.363-.299-.656-.73-.88-1.296-.224-.565-.336-1.296-.336-2.192 0-.917.074-1.723.224-2.416.149-.693.426-1.275.832-1.744.384-.448.906-.784 1.568-1.008.66-.224 1.504-.336 2.528-.336h.352c.128 0 .245.01.352.032.106.021.234.032.384.032.149 0 .309.01.48.032v-1.696c0-.555-.118-1.013-.352-1.376-.235-.363-.662-.544-1.28-.544-.427 0-.816.139-1.168.416-.352.278-.582.683-.688 1.216h-3.168c.085-1.45.576-2.624 1.472-3.52a4.632 4.632 0 011.536-1.008c.597-.245 1.269-.368 2.016-.368.682 0 1.322.107 1.92.32.597.213 1.12.533 1.568.96.426.427.768.96 1.024 1.6.256.64.384 1.387.384 2.24v11.296h-3.264zm0-6.976a5.356 5.356 0 00-.896-.096c-.704 0-1.307.166-1.808.496-.502.33-.752.933-.752 1.808 0 .619.149 1.12.448 1.504.298.384.714.576 1.248.576.554 0 .986-.181 1.296-.544.309-.363.464-.875.464-1.536v-2.208zM56.304 101.65H53.04v-.736c0-.747-.176-1.392-.528-1.936-.352-.544-.944-.816-1.776-.816-.448 0-.811.085-1.088.256-.278.17-.502.384-.672.64-.171.277-.288.592-.352.944s-.096.72-.096 1.104c0 .448.016.821.048 1.12.032.299.112.565.24.8.128.235.314.437.56.608.245.171.58.341 1.008.512l2.496.992c.725.277 1.312.603 1.76.976.448.373.8.805 1.056 1.296.234.512.394 1.093.48 1.744.085.651.128 1.392.128 2.224 0 .96-.096 1.851-.288 2.672-.192.821-.502 1.52-.928 2.096a4.607 4.607 0 01-1.76 1.408c-.726.341-1.611.512-2.656.512-.79 0-1.526-.139-2.208-.416a5.242 5.242 0 01-1.76-1.152 5.606 5.606 0 01-1.168-1.712 5.2 5.2 0 01-.432-2.128v-1.216h3.264v1.024c0 .597.176 1.136.528 1.616.352.48.944.72 1.776.72.554 0 .986-.08 1.296-.24.309-.16.549-.389.72-.688.17-.299.272-.656.304-1.072.032-.416.048-.88.048-1.392 0-.597-.022-1.088-.064-1.472-.043-.384-.128-.693-.256-.928a1.793 1.793 0 00-.592-.576 7.675 7.675 0 00-.976-.48l-2.336-.96c-1.408-.576-2.352-1.339-2.832-2.288-.48-.949-.72-2.139-.72-3.568 0-.853.117-1.664.352-2.432a5.533 5.533 0 011.056-1.984 4.841 4.841 0 011.712-1.328c.693-.33 1.52-.496 2.48-.496.81 0 1.552.15 2.224.448a5.73 5.73 0 011.744 1.184c.98 1.024 1.472 2.197 1.472 3.52v1.6zM62 113.201c0 .512.144.907.432 1.184.288.277.677.416 1.168.416.618 0 1.029-.181 1.232-.544.202-.363.325-.725.368-1.088h3.264c0 1.429-.438 2.581-1.312 3.456-.427.448-.94.8-1.536 1.056-.598.256-1.27.384-2.016.384-1.024 0-1.894-.213-2.608-.64a4.413 4.413 0 01-1.648-1.696 4.425 4.425 0 01-.48-1.472 12.044 12.044 0 01-.128-1.824v-5.344c0-.661.042-1.269.128-1.824a4.425 4.425 0 01.48-1.472 4.413 4.413 0 011.648-1.696c.714-.427 1.584-.64 2.608-.64.746 0 1.424.128 2.032.384a4.553 4.553 0 011.552 1.056c.853.96 1.28 2.208 1.28 3.744H65.2c0-.661-.144-1.147-.432-1.456-.288-.309-.678-.464-1.168-.464-.491 0-.88.155-1.168.464-.288.309-.432.773-.432 1.392v6.624zm8.384 4.672v-16.224h3.264v16.224h-3.264zm0-19.52v-3.264h3.264v3.264h-3.264zm15.392 12.64h-6.464v2.208c0 .512.144.907.432 1.184.288.277.677.416 1.168.416.618 0 1.029-.181 1.232-.544.202-.363.325-.725.368-1.088h3.264c0 1.429-.438 2.581-1.312 3.456-.427.448-.94.8-1.536 1.056-.598.256-1.27.384-2.016.384-1.024 0-1.894-.213-2.608-.64a4.413 4.413 0 01-1.648-1.696 4.425 4.425 0 01-.48-1.472 12.044 12.044 0 01-.128-1.824v-5.344c0-.661.042-1.269.128-1.824a4.425 4.425 0 01.48-1.472 4.413 4.413 0 011.648-1.696c.714-.427 1.584-.64 2.608-.64.746 0 1.424.128 2.032.384a4.553 4.553 0 011.552 1.056c.853.96 1.28 2.165 1.28 3.616v4.48zm-6.464-2.56h3.2v-1.856c0-.619-.144-1.083-.432-1.392-.288-.309-.678-.464-1.168-.464-.491 0-.88.155-1.168.464-.288.309-.432.773-.432 1.392v1.856zm8.864 9.44v-16.224h3.264v1.568h.064a4.644 4.644 0 011.232-1.264c.48-.331 1.093-.496 1.84-.496.405 0 .81.069 1.216.208.405.139.768.368 1.088.688.32.32.576.731.768 1.232.192.501.288 1.115.288 1.84v12.448h-3.264v-11.232c0-.597-.14-1.067-.416-1.408-.278-.341-.672-.512-1.184-.512-.62 0-1.046.192-1.28.576-.235.384-.352.939-.352 1.664v10.912h-3.264zm15.904-4.672c0 .512.144.907.432 1.184.288.277.677.416 1.168.416.618 0 1.029-.181 1.232-.544.202-.363.325-.725.368-1.088h3.264c0 1.429-.438 2.581-1.312 3.456-.427.448-.939.8-1.536 1.056-.598.256-1.27.384-2.016.384-1.024 0-1.894-.213-2.608-.64a4.411 4.411 0 01-1.648-1.696 4.412 4.412 0 01-.48-1.472 11.954 11.954 0 01-.128-1.824v-5.344c0-.661.042-1.269.128-1.824a4.412 4.412 0 01.48-1.472 4.411 4.411 0 011.648-1.696c.714-.427 1.584-.64 2.608-.64.746 0 1.424.128 2.032.384a4.556 4.556 0 011.552 1.056c.853.96 1.28 2.208 1.28 3.744h-3.264c0-.661-.144-1.147-.432-1.456-.288-.309-.678-.464-1.168-.464-.491 0-.88.155-1.168.464-.288.309-.432.773-.432 1.392v6.624zm17.824-2.208h-6.464v2.208c0 .512.144.907.432 1.184.288.277.677.416 1.168.416.618 0 1.029-.181 1.232-.544.202-.363.325-.725.368-1.088h3.264c0 1.429-.438 2.581-1.312 3.456-.427.448-.939.8-1.536 1.056-.598.256-1.27.384-2.016.384-1.024 0-1.894-.213-2.608-.64a4.411 4.411 0 01-1.648-1.696 4.412 4.412 0 01-.48-1.472 11.954 11.954 0 01-.128-1.824v-5.344c0-.661.042-1.269.128-1.824a4.412 4.412 0 01.48-1.472 4.411 4.411 0 011.648-1.696c.714-.427 1.584-.64 2.608-.64.746 0 1.424.128 2.032.384a4.556 4.556 0 011.552 1.056c.853.96 1.28 2.165 1.28 3.616v4.48zm-6.464-2.56h3.2v-1.856c0-.619-.144-1.083-.432-1.392-.288-.309-.678-.464-1.168-.464-.491 0-.88.155-1.168.464-.288.309-.432.773-.432 1.392v1.856z"/></defs><use xlink:href="#q"/></g></defs><use xlink:href="#r"/><defs><g id="t"><defs><path id="s" d="M173.509 184.186l-50.267 26.212"/></defs><use xlink:href="#s" fill="#a9a9a9" fill-rule="evenodd"/><use xlink:href="#s" fill="none" stroke="#58ff84" stroke-linecap="round" stroke-miterlimit="10" stroke-width="2"/></g></defs><use xlink:href="#t"/><defs><g id="v"><defs><path id="u" d="M173.509 182.374a1.813 1.813 0 11.001 3.625 1.813 1.813 0 01-.001-3.625z"/></defs><use xlink:href="#u" fill="#59ff85" fill-rule="evenodd"/><use xlink:href="#u" fill="none" stroke="#58ff84" stroke-linecap="round" stroke-miterlimit="10" stroke-width="2"/></g></defs><use xlink:href="#v"/></svg>